<!DOCTYPE svg PUBLIC "-//W3C//DTD SVG 1.1//EN" "http://www.w3.org/Graphics/SVG/1.1/DTD/svg11.dtd">
<!-- Uploaded to: SVG Repo, www.svgrepo.com, Transformed by: SVG Repo Mixer Tools -->
<svg fill="#FFFFFF" height="800px" width="800px" version="1.1" id="Layer_1" xmlns="http://www.w3.org/2000/svg" xmlns:xlink="http://www.w3.org/1999/xlink" viewBox="-51.2 -51.2 614.43 614.43" xml:space="preserve">
<g id="SVGRepo_bgCarrier" stroke-width="0"/>
<g id="SVGRepo_tracerCarrier" stroke-linecap="round" stroke-linejoin="round" stroke="#CCCCCC" stroke-width="1.024054"/>
<g id="SVGRepo_iconCarrier"> <g> <g> <g> <path d="M333.773,408.533l-67.093,67.093V139.093c0-5.333-3.84-10.133-9.067-10.88c-6.613-0.96-12.267,4.16-12.267,10.56v336.96 l-67.093-67.2c-4.267-4.053-10.987-3.947-15.04,0.213c-3.947,4.16-3.947,10.667,0,14.827l85.333,85.333 c4.16,4.16,10.88,4.16,15.04,0l85.333-85.333c4.053-4.267,3.947-10.987-0.213-15.04 C344.547,404.587,337.933,404.587,333.773,408.533z"/> <path d="M501.347,0H11C5.667,0,0.867,3.84,0.12,9.067c-0.96,6.613,4.16,12.267,10.56,12.267h490.347 c5.333,0,10.133-3.84,10.88-9.067C512.867,5.653,507.747,0,501.347,0z"/> </g> </g> </g> </g>
</svg>